<?xml version="1.0" encoding="UTF-8"?>
<svg id="_Слой_1" data-name="Слой 1" xmlns="http://www.w3.org/2000/svg" viewBox="0 0 1000 1000">
  <defs>
    <style>
      .cls-1 {
        fill: #fff;
        stroke-width: 0px;
      }
    </style>
  </defs>
  <polygon class="cls-1" points="75 523.73 136.89 546.5 136.89 531.37 90.03 515.35 90.03 513 136.89 496.99 136.89 481.86 75 504.63 75 523.73"/>
  <polygon class="cls-1" points="863.11 481.86 863.11 496.99 910.12 513 910.12 515.35 863.11 531.37 863.11 546.5 925 523.73 925 504.63 863.11 481.86"/>
  <g>
    <path class="cls-1" d="m219.65,514.84c0,7.84-2.14,13.86-6.41,18.07-4.27,4.21-9.7,6.32-16.28,6.32s-11.86-2.1-16.13-6.32c-4.27-4.21-6.41-10.23-6.41-18.07v-1.32c0-7.74,2.14-13.71,6.41-17.92,4.27-4.21,9.65-6.32,16.13-6.32s12.13,2.11,16.36,6.32c4.22,4.21,6.34,10.19,6.34,17.92v1.32Zm-.15-27.03h-2.36c-1.08-1.96-2.65-3.84-4.72-5.66-2.06-1.81-4.69-3.3-7.88-4.48-3.19-1.18-7.15-1.76-11.86-1.76-6.09,0-11.69,1.47-16.8,4.41-5.11,2.94-9.19,7.2-12.23,12.78-3.05,5.58-4.57,12.24-4.57,19.98v2.2c0,7.84,1.55,14.52,4.64,20.05,3.09,5.53,7.19,9.77,12.3,12.71,5.11,2.94,10.66,4.41,16.65,4.41,7.07,0,12.5-1.27,16.28-3.82,3.78-2.55,6.61-5.38,8.47-8.52h2.36v10.28h14.88v-102.83h-15.18v40.25Z"/>
    <path class="cls-1" d="m305.85,520.42c0,6.07-1.87,10.85-5.6,14.32-3.73,3.48-8.64,5.21-14.73,5.21-4.42,0-7.91-.98-10.46-2.94-2.56-1.96-3.83-4.6-3.83-7.93s1.23-5.85,3.68-7.57c2.45-1.71,5.7-2.57,9.72-2.57h21.22v1.47Zm14.88,12.93v-29.82c0-8.82-2.7-15.62-8.1-20.42-5.4-4.8-12.82-7.2-22.25-7.2-6.09,0-11.3.98-15.62,2.94-4.32,1.96-7.79,4.53-10.39,7.71-2.6,3.18-4.49,6.73-5.67,10.65l14.15,4.55c.88-3.92,2.7-7.1,5.45-9.55,2.75-2.45,6.73-3.67,11.94-3.67s9.23,1.27,11.79,3.82c2.55,2.55,3.83,5.93,3.83,10.14v4.7h-22.1c-5.3,0-10.04.83-14.22,2.5-4.18,1.67-7.47,4.14-9.87,7.42-2.41,3.28-3.61,7.42-3.61,12.41s1.2,9.06,3.61,12.49c2.41,3.43,5.65,6.02,9.73,7.79,4.07,1.76,8.72,2.64,13.92,2.64s9.04-.71,12.08-2.13c3.04-1.42,5.35-3.11,6.93-5.07,1.57-1.96,2.75-3.67,3.54-5.14h2.21v.44c0,3.04,1.08,5.44,3.24,7.2,2.16,1.76,4.96,2.64,8.4,2.64h11.35v-12.63h-6.19c-2.75,0-4.13-1.47-4.13-4.41"/>
    <path class="cls-1" d="m372.45,454.02h-15.18v23.95h-20.04v12.78h20.04v45.1c0,4.41,1.3,7.93,3.91,10.58,2.6,2.64,6.11,3.97,10.54,3.97h20.04v-12.78h-15.18c-2.75,0-4.13-1.47-4.13-4.41v-42.46h21.66v-12.78h-21.66v-23.95Z"/>
    <path class="cls-1" d="m460.56,520.42c0,6.07-1.87,10.85-5.6,14.32-3.73,3.48-8.64,5.21-14.73,5.21-4.42,0-7.91-.98-10.46-2.94-2.56-1.96-3.83-4.6-3.83-7.93s1.23-5.85,3.68-7.57c2.45-1.71,5.7-2.57,9.72-2.57h21.22v1.47Zm14.88,12.93v-29.82c0-8.82-2.7-15.62-8.1-20.42-5.4-4.8-12.82-7.2-22.25-7.2-6.09,0-11.3.98-15.62,2.94-4.32,1.96-7.79,4.53-10.39,7.71-2.6,3.18-4.49,6.73-5.67,10.65l14.15,4.55c.88-3.92,2.7-7.1,5.45-9.55,2.75-2.45,6.73-3.67,11.94-3.67s9.23,1.27,11.79,3.82c2.55,2.55,3.83,5.93,3.83,10.14v4.7h-22.1c-5.3,0-10.04.83-14.22,2.5-4.18,1.67-7.47,4.14-9.87,7.42-2.41,3.28-3.61,7.42-3.61,12.41s1.2,9.06,3.61,12.49c2.41,3.43,5.65,6.02,9.73,7.79,4.07,1.76,8.72,2.64,13.92,2.64s9.04-.71,12.08-2.13c3.04-1.42,5.35-3.11,6.93-5.07,1.57-1.96,2.75-3.67,3.54-5.14h2.21v.44c0,3.04,1.08,5.44,3.24,7.2,2.16,1.76,4.96,2.64,8.4,2.64h11.35v-12.63h-6.19c-2.75,0-4.13-1.47-4.13-4.41"/>
    <path class="cls-1" d="m551.04,534.01c-3.34,3.28-8.2,4.92-14.59,4.92-4.22,0-8.03-.93-11.42-2.79-3.39-1.86-6.07-4.6-8.03-8.23-1.97-3.62-2.95-7.98-2.95-13.07v-1.32c0-5.09.98-9.43,2.95-13,1.96-3.57,4.64-6.32,8.03-8.23,3.39-1.91,7.19-2.87,11.42-2.87s7.91.78,10.76,2.35c2.85,1.57,5.06,3.67,6.63,6.32,1.57,2.64,2.6,5.58,3.09,8.81l14.74-3.08c-.88-5.09-2.83-9.74-5.82-13.96-3-4.21-6.95-7.59-11.86-10.14-4.91-2.55-10.86-3.82-17.83-3.82s-13.29,1.5-18.93,4.48c-5.65,2.99-10.12,7.25-13.41,12.78-3.29,5.53-4.94,12.22-4.94,20.05v1.91c0,7.84,1.64,14.54,4.94,20.13,3.29,5.58,7.76,9.84,13.41,12.78,5.65,2.94,11.96,4.41,18.93,4.41s12.92-1.25,17.83-3.75c4.91-2.5,8.86-5.85,11.86-10.06,2.99-4.21,5.08-8.81,6.26-13.81l-14.73-3.38c-.88,5.09-3,9.28-6.34,12.56"/>
    <path class="cls-1" d="m616.24,479.8c-2.6,1.42-4.49,3.65-5.67,6.68h-2.36v-8.52h-14.88v72.42h15.18v-42.6c0-5.58,1.57-9.72,4.71-12.41,3.14-2.69,7.17-4.04,12.08-4.04h9.28v-13.66h-8.69c-3.83,0-7.05.71-9.65,2.13"/>
    <path class="cls-1" d="m697.06,520.42c0,6.07-1.87,10.85-5.6,14.32-3.73,3.48-8.64,5.21-14.73,5.21-4.42,0-7.91-.98-10.46-2.94-2.56-1.96-3.83-4.6-3.83-7.93s1.23-5.85,3.68-7.57c2.45-1.71,5.7-2.57,9.72-2.57h21.22v1.47Zm14.88,12.93v-29.82c0-8.82-2.7-15.62-8.1-20.42-5.4-4.8-12.82-7.2-22.25-7.2-6.09,0-11.3.98-15.62,2.94-4.32,1.96-7.79,4.53-10.39,7.71-2.6,3.18-4.49,6.73-5.67,10.65l14.15,4.55c.88-3.92,2.7-7.1,5.45-9.55,2.75-2.45,6.73-3.67,11.94-3.67s9.23,1.27,11.79,3.82c2.55,2.55,3.83,5.93,3.83,10.14v4.7h-22.1c-5.3,0-10.04.83-14.22,2.5-4.18,1.67-7.47,4.14-9.87,7.42-2.41,3.28-3.61,7.42-3.61,12.41s1.2,9.06,3.61,12.49c2.41,3.43,5.65,6.02,9.72,7.79,4.08,1.76,8.72,2.64,13.92,2.64s9.04-.71,12.08-2.13c3.04-1.42,5.35-3.11,6.93-5.07,1.57-1.96,2.75-3.67,3.54-5.14h2.21v.44c0,3.04,1.08,5.44,3.24,7.2,2.16,1.76,4.96,2.64,8.4,2.64h11.35v-12.63h-6.19c-2.75,0-4.13-1.47-4.13-4.41"/>
    <path class="cls-1" d="m815.38,462.1c0-3.14-.68-5.83-2.03-8.08-.53-.91-1.18-1.74-1.95-2.5-2.66-2.65-6.19-3.97-10.61-3.97h-37.42c-4.42,0-7.96,1.32-10.61,3.96-2.65,2.64-3.98,6.17-3.98,10.58v15.87h-20.33v12.78h20.33v59.64h15.18v-59.64h20.92v-12.78h-20.92v-13.22c0-2.94,1.42-4.41,4.27-4.41h27.7c2.85,0,4.28,1.47,4.28,4.4v71.1c0,4.41,1.3,7.93,3.9,10.58,2.6,2.64,6.11,3.97,10.54,3.97h20.04v-12.79h-15.17c-2.76,0-4.12-1.46-4.12-4.4v-42.46h20.33v-12.78h-20.33v-15.87Z"/>
  </g>
</svg>