<?xml version="1.0" encoding="UTF-8"?>
<svg id="_Слой_1" data-name="Слой 1" xmlns="http://www.w3.org/2000/svg" viewBox="0 0 1000 1000">
  <defs>
    <style>
      .cls-1 {
        fill: #fff;
        stroke-width: 0px;
      }
    </style>
  </defs>
  <path class="cls-1" d="m397.18,544.09h-20.88v-96.22h-41.3v96.22h-19.36v-114.5h142.44v114.5h-20.37v-96.22h-40.54v96.22Z"/>
  <path class="cls-1" d="m493.57,497.38v28.43h61.97v18.28h-82.35v-114.5h81.84v67.79h-61.46Zm0-18.79h42.87v-30.72h-42.87v30.72Z"/>
  <path class="cls-1" d="m632.67,544.09v-96.22h-42.62v96.22h-19.36v-114.5h82.35v114.5h-20.37Z"/>
  <path class="cls-1" d="m743.8,544.09h-48.48v-96.22h-29.14v-18.28h77.62v18.28h-29.12v77.94h29.12v18.28Z"/>
  <path class="cls-1" d="m758.14,544.09v-114.5h82.35v114.5h-82.35Zm63.25-96.22h-42.87v77.94h42.87v-77.94Z"/>
  <path class="cls-1" d="m905.65,447.87h-29.63v96.22h-20.37v-114.5h69.36v39.21h-19.35v-20.94Z"/>
  <g>
    <path class="cls-1" d="m179.34,468.25v-1.85h-10.51c9.52-16.65,17.19-27.31,23.01-32,5.84-4.71,9.65-4.29,11.6-2.22,5.54,5.91-6.22,6.43-6.22,12.02,0,7.34,9.2,6.99,12.54.24,1.59-3.22,1.41-7.14-.58-10.13-1.56-2.36-4.49-4.72-9.92-4.72-13.02,0-26.54,12.41-42.67,36.81h-12.71v1.85h11.42c-13.66,21.16-40.68,73.75-56.53,91.11-10.2,11.17-20.35,11.31-22.92,7.05l-.83,3.31c4.42.88,21.61,5.95,50.74-32.92,7.79-10.39,41.78-68.54,41.78-68.54h11.81Z"/>
    <path class="cls-1" d="m265.19,485.26c4.08-2.59,10.08-6.04,18-10.36,10.51-5.92,15.77-10.42,15.77-13.5s-6.16-3.73-15.4.09c-7.45,3.08-16.81,9.89-20.59,22.29-4.7,2.96-9.61,5.71-16.29,10.77l10.54-17.05c3.79-6.3,4.7-11.15,1.3-13.78-1.43-1.1-5.59-3.16-13.73.74-3.22,1.54-6.31,3.86-9.28,6.94l.86.43c15.02-12.64,12.57-1.78,5.26,9.19l-7.76,12.3c-4.46,6.06-26.12,33.38-44.98,33.38-9.89,0-24.05-5.34-12.43-29.04,0,0,42.69-1.1,50.51-20.22,1.85-4.54.32-9.91-3.9-12.41-2.62-1.55-6.6-2.7-12.66-2.7-22.48,0-36.97,14.57-43.51,25.43-22.65,37.65,18.89,57.8,54.64,25.09l-9.55,15.14h21.15v-.37c-3.83-.4-4.02-4.29-1.71-8.32l11.32-18.31c4.65-4.35,19.67-14.06,19.67-14.06,0,0-1.7,14.43,17.25,14.43,3.77,0,13.58-1.25,19.02-7.94h-2.73c-8.67,9-34.62,7.16-30.76-8.15Zm-71.3-11.38c24.66-23.48,42.99-1.09,5.38,17.29-9.61,4.7-21.85,4.37-21.85,4.37,4.2-8.14,9.54-15.07,16.47-21.66Z"/>
  </g>
</svg>