<?xml version="1.0" encoding="UTF-8"?>
<svg id="_Слой_1" data-name="Слой 1" xmlns="http://www.w3.org/2000/svg" viewBox="0 0 1000 1000">
  <defs>
    <style>
      .cls-1 {
        fill: #fff;
        stroke-width: 0px;
      }
    </style>
  </defs>
  <path class="cls-1" d="m924.42,490.41h-77.73v22.9h50.45c-1.84,9.92-6.74,17.98-14.72,24.17-7.98,6.2-17.4,9.29-28.26,9.29-12.56,0-23.26-4.4-32.1-13.21-8.83-8.81-13.25-20-13.25-33.56s4.42-24.76,13.25-33.56c8.83-8.81,19.53-13.21,32.1-13.21,8.77,0,16.74,2.25,23.94,6.75,7.2,4.5,12.7,10.73,16.49,18.69l22.77-11.74c-5.76-12.14-14.29-21.69-25.62-28.66-11.32-6.98-23.85-10.48-37.59-10.48-9.7,0-18.85,1.8-27.49,5.39-8.63,3.58-16.16,8.51-22.57,14.78-6.41,6.26-11.48,13.93-15.21,22.99-3.73,9.07-5.59,18.76-5.59,29.06s1.86,20,5.59,29.06c3.73,9.07,8.81,16.73,15.21,22.99,6.42,6.26,13.94,11.19,22.57,14.78,8.64,3.59,17.79,5.39,27.49,5.39,12.95,0,24.83-2.97,35.63-8.9,10.79-5.94,19.36-14.22,25.71-24.86,6.35-10.63,9.52-22.54,9.52-35.71,0-5.49-.2-9.6-.58-12.34m-185.51,37.97l-60.27-96.68h-29.44v136.99h25.52v-97.26l60.27,97.26h29.44v-136.99h-25.52v96.68Zm-112.47-96.68h-25.52v136.99h25.52v-136.99Zm-110.13,136.99h46.98v-25.05h-21.46v-86.89h41.81v-25.05h-126.99l-17.47,99.42-41.81-99.42h-30.82l-24.14,136.99h25.91l17.47-100.01,41.61,100.01h30.82l19.73-111.94h38.36v111.94Zm-246,2.15c16.23,0,29.84-5.39,40.84-16.15,10.99-10.76,16.48-24.37,16.48-40.8v-82.2h-25.51v80.24c0,10.44-2.98,18.63-8.94,24.57-5.95,5.94-13.58,8.9-22.87,8.9s-16.91-2.96-22.86-8.9c-5.96-5.94-8.93-14.13-8.93-24.57v-80.24h-25.52v82.2c0,16.43,5.5,30.04,16.48,40.8,11,10.76,24.6,16.15,40.83,16.15m-105.61-83.37h-64.19v-55.78h-25.52v136.99h25.52v-56.17h64.19v56.17h25.53v-136.99h-25.53v55.78Zm452.15-141.88h31.99c7.32,0,13.48-2.21,18.45-6.64,4.97-4.44,7.46-9.92,7.46-16.44s-2.46-11.72-7.36-15.95c-4.91-4.24-11.09-6.36-18.55-6.36h-31.99v45.39Zm0,66.54h-25.52v-136.98h59.47c14.13,0,25.91,4.5,35.34,13.51,9.42,9,14.13,20.29,14.13,33.85s-5.01,24.82-15.02,34.15c-10,9.33-22.14,13.99-36.41,13.99h-31.99v41.49Zm-294.63-56.17h64.19v56.17h25.52v-136.98h-25.52v55.78h-64.19v-55.78h-25.52v136.98h25.52v-56.17Zm133.67-7.64c0,12.27,3.93,22.31,11.78,30.14,7.85,7.83,17.79,11.73,29.84,11.73,13.74,0,25.45-5.12,35.14-15.36,9.68-10.25,14.52-22.48,14.52-36.7,0-12.13-3.93-22.08-11.78-29.84-7.85-7.77-17.79-11.65-29.84-11.65-13.74,0-25.45,5.02-35.14,15.07-9.69,10.05-14.52,22.25-14.52,36.6m-6.38,48.34c-12.76-12.65-19.14-28.51-19.14-47.56,0-14.09,3.34-27.1,10.01-39.05,6.68-11.93,15.83-21.39,27.49-28.38,11.65-6.98,24.27-10.47,37.88-10.47,19.1,0,35.07,6.26,47.9,18.79,12.81,12.53,19.23,28.31,19.23,47.36,0,13.83-3.37,26.79-10.11,38.85-6.74,12.07-15.94,21.66-27.58,28.76-11.65,7.12-24.33,10.67-38.07,10.67-18.98,0-34.85-6.33-47.61-18.98m259.48,288.86c0-4.82-1.71-8.84-5.11-12.04-3.4-3.19-7.59-4.79-12.56-4.79h-42.2v31.5h43.38c4.7,0,8.64-1.39,11.77-4.2,3.15-2.8,4.72-6.29,4.72-10.47m-59.87-41.1h42.2c4.45,0,8.18-1.62,11.19-4.89,3.01-3.26,4.51-7.24,4.51-11.93,0-4.18-1.54-7.61-4.62-10.28-3.07-2.68-7.03-4.01-11.87-4.01h-41.42v31.11Zm80.18,24.96c3.47,5.81,5.2,12.3,5.2,19.48,0,10.3-3.8,18.95-11.39,25.93-7.59,6.98-17.01,10.47-28.26,10.47h-71.26v-136.99h69.3c11.38,0,20.83,3.36,28.37,10.08,7.53,6.73,11.28,15.24,11.28,25.55,0,6.79-1.57,13.05-4.7,18.79-3.16,5.74-7.47,10.17-12.97,13.3,6.16,3.14,10.97,7.61,14.43,13.41m-154-.88c0,10.44-2.97,18.62-8.93,24.56-5.96,5.94-13.58,8.91-22.87,8.91s-16.91-2.97-22.86-8.91c-5.96-5.94-8.93-14.12-8.93-24.56v-80.24h-25.53v82.2c0,16.43,5.51,30.04,16.49,40.8,11,10.77,24.6,16.15,40.83,16.15s29.84-5.38,40.83-16.15c11.01-10.76,16.49-24.36,16.49-40.8v-82.2h-25.52v80.24Zm-251.92,26.91c-7.59,5.28-16.16,7.92-25.71,7.92-12.82,0-23.65-4.43-32.49-13.31-8.83-8.87-13.25-20.03-13.25-33.47s4.42-24.59,13.25-33.46c8.83-8.87,19.67-13.31,32.49-13.31,9.28,0,17.67,2.48,25.13,7.43,7.46,4.97,13.08,11.82,16.88,20.56l25.53-9.21c-6.16-13.7-15.26-24.49-27.3-32.38-12.04-7.89-25.39-11.84-40.03-11.84-13.22,0-25.3,3.13-36.23,9.39-10.92,6.26-19.52,14.91-25.81,25.93-6.28,11.03-9.43,23.33-9.43,36.89s3.15,25.87,9.43,36.89c6.28,11.03,14.89,19.67,25.81,25.93,10.93,6.26,23,9.4,36.23,9.4,15.04,0,28.68-4.15,40.92-12.43,12.23-8.28,21.36-19.53,27.38-33.75l-25.72-9.01c-3.8,9.27-9.48,16.54-17.08,21.83m82.18,4.99h71.06l-4.51,24.85h-96.77l24.53-136.99h25.71l-20.02,112.14Z"/>
</svg>