<svg width="40" height="40" viewBox="0 0 40 40" fill="none" xmlns="http://www.w3.org/2000/svg">
<path d="M28.333 3.33331H11.6663C7.06397 3.33331 3.33301 7.06427 3.33301 11.6666V28.3333C3.33301 32.9357 7.06397 36.6666 11.6663 36.6666H28.333C32.9354 36.6666 36.6663 32.9357 36.6663 28.3333V11.6666C36.6663 7.06427 32.9354 3.33331 28.333 3.33331Z" stroke="white" stroke-width="2" stroke-linecap="round" stroke-linejoin="round"/>
<path d="M26.6665 18.95C26.8722 20.3371 26.6353 21.7537 25.9894 22.9984C25.3436 24.243 24.3217 25.2524 23.0692 25.8828C21.8167 26.5132 20.3972 26.7327 19.0128 26.5099C17.6284 26.2871 16.3494 25.6335 15.3579 24.6419C14.3664 23.6504 13.7127 22.3715 13.4899 20.987C13.2672 19.6026 13.4866 18.1832 14.117 16.9306C14.7475 15.6781 15.7568 14.6562 17.0015 14.0104C18.2461 13.3646 19.6628 13.1277 21.0498 13.3333C22.4647 13.5432 23.7746 14.2025 24.786 15.2139C25.7974 16.2253 26.4567 17.5351 26.6665 18.95Z" stroke="white" stroke-width="2" stroke-linecap="round" stroke-linejoin="round"/>
<path d="M29.9907 10.7111C30.0164 10.8845 29.9868 11.0616 29.906 11.2171C29.8253 11.3727 29.6976 11.4989 29.541 11.5777C29.3844 11.6565 29.207 11.6839 29.0339 11.6561C28.8609 11.6282 28.701 11.5465 28.5771 11.4226C28.4531 11.2986 28.3714 11.1388 28.3436 10.9657C28.3157 10.7927 28.3432 10.6152 28.422 10.4587C28.5008 10.3021 28.6269 10.1744 28.7825 10.0936C28.9381 10.0129 29.1152 9.9833 29.2886 10.009C29.4654 10.0352 29.6292 10.1177 29.7556 10.2441C29.882 10.3705 29.9644 10.5342 29.9907 10.7111Z" stroke="white" stroke-width="2" stroke-linecap="round" stroke-linejoin="round"/>
</svg>
