<svg width="518" height="250" viewBox="0 0 518 250" fill="none" xmlns="http://www.w3.org/2000/svg">
<path d="M131.072 91.8405V0H99.8193V109.007H113.905C123.384 109.007 131.072 101.319 131.072 91.8405Z" fill="white"/>
<path d="M492.636 81.1352C489.974 86.5878 486.466 90.6409 477.923 90.6409C468.672 90.6409 462.928 84.8793 462.229 73.3561H516.882V69.7755C516.882 44.548 502.442 29.1352 474.415 29.1352C444.28 29.1352 428.168 45.3295 428.168 70.0936C428.168 94.8576 444.144 111.052 475.96 111.052C501.742 111.052 514.074 97.8202 518 86.297L492.636 81.1533V81.1352ZM475.824 45.9384C482.549 45.9384 486.893 50.455 487.456 60.7332H462.647C463.492 50.764 468.536 45.9384 475.824 45.9384Z" fill="white"/>
<path d="M222.731 167.714C214.461 170.667 203.11 181.109 195.686 192.323H195.404C196.522 185.471 197.367 178.465 197.367 172.23V169.586H166.26V247.45H197.512V220.65C197.512 209.49 206.109 202.493 215.87 197.867C219.605 196.095 223.058 195.032 226.802 194.032C226.802 194.032 224.676 190.142 223.294 181.2C221.886 172.076 222.74 167.723 222.74 167.723L222.731 167.714Z" fill="white"/>
<path d="M280.21 229.074C270.959 229.074 265.216 223.313 264.516 211.789H319.169V208.209C319.169 182.981 304.729 167.568 276.702 167.568C246.568 167.568 230.455 183.763 230.455 208.527C230.455 233.291 246.431 249.485 278.247 249.485C304.029 249.485 316.361 236.253 320.287 224.73L294.923 219.587C292.261 225.039 288.753 229.092 280.21 229.092V229.074ZM278.111 184.381C284.836 184.381 289.18 188.897 289.743 199.176H264.934C265.779 189.206 270.823 184.381 278.111 184.381Z" fill="white"/>
<path d="M415.254 215.988L400.678 169.586H376.995L363.4 215.988L351.204 169.586H318.134L344.197 247.44H373.632L385.119 206.8L397.597 247.44H428.15L453.932 169.586H426.741L415.254 215.988Z" fill="white"/>
<path d="M224.612 57.3072C224.612 40.3313 214.806 29.1171 186.916 29.1171C159.025 29.1171 150.338 38.7682 145.857 50.764L173.048 55.1261C175.429 49.9825 178.791 47.1834 184.816 47.1834C190.842 47.1834 193.368 50.3005 193.368 55.9076V61.6693L175.992 62.9143C148.384 64.9409 139.56 74.7465 139.56 88.6053C139.56 102.464 148.384 110.87 165.341 110.87C182.299 110.87 191.123 101.682 194.767 96.0754C194.349 98.7199 194.204 100.901 194.204 102.928C194.204 105.263 194.486 107.29 195.049 109.007H227.002C225.602 106.208 224.621 103.4 224.621 98.8835V57.3072H224.612ZM182.526 90.8863C178.046 90.8863 174.402 87.542 174.402 83.4071C174.402 79.2722 178.037 75.9279 182.526 75.9279C187.016 75.9279 190.651 79.2722 190.651 83.4071C190.651 87.542 187.016 90.8863 182.526 90.8863Z" fill="white"/>
<path d="M93.4581 69.6119C93.4581 43.7574 75.8188 29.1261 56.6165 29.1261C41.9035 29.1261 33.4882 37.8503 30.1258 44.3844C30.6892 38.9318 30.9709 35.0422 30.9709 31.1527H0V140.16H14.086C23.5645 140.16 31.2527 132.472 31.2527 122.993V122.875C31.2527 114.314 30.8346 106.217 30.4075 99.6741C33.4882 104.663 41.8944 111.043 55.217 111.043C75.6734 111.043 93.4581 96.248 93.4581 69.621V69.6119ZM52.727 85.052C45.5022 85.052 39.6497 78.6906 39.6497 70.8479C39.6497 63.0051 45.5022 56.6437 52.727 56.6437C59.9517 56.6437 65.8042 63.0051 65.8042 70.8479C65.8042 78.6906 59.9517 85.052 52.727 85.052Z" fill="white"/>
<path d="M120.367 167.559C106.072 167.559 97.52 175.348 94.0212 182.045C94.7209 175.193 95.0027 168.813 95.0027 161.025V155.609C95.0027 146.131 87.3145 138.442 77.836 138.442H63.75V247.45H94.5846C94.5846 244.496 94.4483 241.37 94.1666 236.708C96.9656 241.533 104.963 249.476 119.394 249.476C139.296 249.476 157.217 234.681 157.217 207.9C157.217 181.118 139.578 167.568 120.376 167.568L120.367 167.559ZM116.468 221.786C109.243 221.786 103.391 215.424 103.391 207.582C103.391 199.739 109.243 193.378 116.468 193.378C123.693 193.378 129.545 199.739 129.545 207.582C129.545 215.424 123.693 221.786 116.468 221.786Z" fill="white"/>
<path d="M336.21 87.2058C336.21 102.155 344.761 111.034 359.756 111.034C374.751 111.034 385.401 102.001 390.027 97.0205C389.464 101.846 389.182 105.427 389.182 109.007H420.153V31.1436H388.9V85.3337C385.956 87.5147 381.048 90.4773 375.868 90.4773C370.688 90.4773 367.599 87.2058 367.599 81.2897V31.1436H336.001C334.746 36.0146 332.238 43.5665 330.339 47.6469H336.2V87.2058H336.21Z" fill="white"/>
<path d="M271.659 156.209H282.028C316.08 156.209 327.43 143.441 327.43 127.71C327.43 113.851 318.461 104.191 296.596 104.191L259.872 104.345C259.336 103.536 258.827 100.61 259.109 98.3837C259.645 96.4025 260.863 95.9754 262.726 95.9754C264.589 95.9754 274.313 97.2931 277.984 97.2931C301.867 97.2931 319.887 81.6532 319.887 63.4686C319.887 58.325 318.615 52.8087 316.398 49.5008C322.641 46.3837 327.058 38.2775 327.058 30.9437H299.849C299.849 31.6889 299.667 32.9612 299.304 33.7064C293.969 31.1254 285.699 29.108 277.975 29.108C253.156 29.108 236.071 45.0933 236.071 63.8412C236.071 74.6738 241.96 82.5892 248.385 87.5511C251.221 89.196 250.694 91.3952 248.767 92.413C242.451 96.2662 238.425 102.173 238.425 110.27C238.425 118.368 242.905 124.284 246.977 127.237C236.744 128.637 231.282 132.844 231.282 140.323C231.282 148.575 237.725 156.209 271.641 156.209H271.659ZM278.011 54.081C283.537 54.081 288.126 58.4976 288.126 63.8321C288.126 69.1666 283.528 73.2016 278.011 73.2016C272.132 73.2016 267.351 68.9667 267.351 63.8321C267.351 58.6976 272.132 54.0901 278.011 54.081ZM279.365 128.3C291.57 128.3 301.458 131.118 301.458 134.589C301.458 138.061 291.561 140.878 279.365 140.878C267.17 140.878 257.273 138.061 257.273 134.589C257.273 131.118 267.17 128.3 279.365 128.3Z" fill="white"/>
</svg>
