<svg width="130" height="128" viewBox="0 0 130 128" fill="none" xmlns="http://www.w3.org/2000/svg">
<path d="M104.558 22.278C94.4104 12.1362 80.3908 5.86431 64.9041 5.86431C49.4175 5.86431 35.3978 12.1376 25.2499 22.278C15.1019 32.4185 8.82428 46.4301 8.82428 61.9054C8.82428 77.3808 15.1019 91.3911 25.2499 101.533C35.3978 111.673 49.4188 117.947 64.9041 117.947C80.3895 117.947 94.4104 111.673 104.558 101.533C114.706 91.3911 120.984 77.3808 120.984 61.9054C120.984 46.4301 114.706 32.4185 104.558 22.278ZM64.9041 5.03809C80.6174 5.03809 94.8444 11.403 105.141 21.6939C115.439 31.9848 121.808 46.2017 121.808 61.9054C121.808 77.6092 115.439 91.8261 105.141 102.116C94.8431 112.406 80.6174 118.771 64.9041 118.771C49.1909 118.771 34.9639 112.406 24.6672 102.116C14.3691 91.8247 8 77.6078 8 61.9054C8 46.203 14.3704 31.9848 24.6672 21.6939C34.9652 11.403 49.1909 5.03809 64.9041 5.03809Z" fill="white"/>
<path d="M101.757 25.08C92.3269 15.655 79.2967 9.82623 64.9059 9.82623C50.5151 9.82623 37.4848 15.6563 28.0547 25.08C18.6246 34.5036 12.7905 47.5249 12.7905 61.9072C12.7905 76.2896 18.6246 89.3095 28.0547 98.7345C37.4848 108.159 50.5151 113.988 64.9059 113.988C79.2967 113.988 92.3269 108.158 101.757 98.7345C111.187 89.3095 117.021 76.2896 117.021 61.9072C117.021 47.5249 111.187 34.505 101.757 25.08ZM64.9059 9C79.5246 9 92.7609 14.9217 102.341 24.4958C111.921 34.07 117.848 47.2978 117.848 61.9058C117.848 76.5139 111.923 89.7417 102.341 99.3158C92.7609 108.89 79.5246 114.812 64.9059 114.812C50.2871 114.812 37.0509 108.89 27.4706 99.3158C17.8904 89.7417 11.9648 76.5153 11.9648 61.9058C11.9648 47.2964 17.8904 34.07 27.4706 24.4958C37.0509 14.9217 50.2871 9 64.9059 9Z" fill="white"/>
<path d="M85.1573 85.728C86.1631 84.6282 87.012 83.3875 87.6834 82.0196C88.8461 79.6517 89.4916 76.8926 89.5217 73.8025C89.5544 70.4716 89.0863 67.6577 88.1051 65.3159C88.056 65.1996 88.0068 65.0847 87.955 64.9711C87.1826 63.7058 86.2423 62.5773 85.156 61.5869V85.728H85.1573ZM71.1855 56.148C70.9494 56.122 70.7106 56.0988 70.4717 56.0796C67.8829 55.869 65.1835 56.029 62.7803 56.7075C63 56.6719 63.2224 56.6377 63.4462 56.6063C64.7413 56.4202 66.1238 56.2835 67.524 56.2096C68.7345 56.1467 69.9709 56.122 71.1855 56.1467V56.148ZM61.9642 49.2127C64.2828 48.7599 66.7202 48.608 69.1302 48.6956C71.5089 48.7818 73.8576 49.1005 76.0329 49.5916L76.0356 30.9344C75.1663 30.6882 74.2793 30.4953 73.3949 30.3503C71.7423 30.0795 70.1046 29.9714 68.6157 29.9824C66.2084 30.0002 63.9839 30.4434 61.9628 31.1451V49.214L61.9642 49.2127ZM49.8292 57.3108C50.618 55.8019 51.6402 54.5188 52.8438 53.4395V36.7112C51.5583 37.8712 50.5457 38.9655 49.8292 39.7863V57.3094V57.3108ZM50.2454 72.5166C50.0994 72.3101 49.9616 72.0967 49.8292 71.8778V84.5639C50.6821 85.1822 51.6866 85.8771 52.8384 86.5857V75.3633C52.8384 75.325 52.8411 75.2867 52.8438 75.2484C52.0073 74.5671 50.8541 73.3798 50.2441 72.5152L50.2454 72.5166ZM61.9669 68.4443C62.0815 68.2637 62.1784 68.0668 62.2576 67.8493C62.6997 66.6291 63.4694 65.8138 64.2555 65.4349C64.6854 65.2269 65.1289 65.1394 65.5506 65.1736C67.0381 65.294 68.4752 67.2693 68.4847 68.6522C68.4847 68.815 68.4765 68.9928 68.4561 69.1748C68.3305 70.2896 67.7573 72.2923 66.3421 74.0104C65.3405 75.2251 63.9266 76.3058 61.9683 76.8529V90.5636C62.9836 90.8687 63.9375 91.0999 64.9433 91.2681C66.207 91.4788 67.5567 91.5937 69.2012 91.6361H69.2108C70.6573 91.6703 72.0507 91.5978 73.3786 91.4282C74.2902 91.3105 75.1745 91.1464 76.0302 90.9357L76.0343 63.9507C75.427 63.8412 74.7583 63.7578 74.05 63.7003C72.3973 63.5649 70.555 63.5635 68.7549 63.6593C67.0245 63.7496 65.3855 63.8987 64.044 64.0765C63.2101 64.1873 62.5005 64.3077 61.9683 64.4294V68.447L61.9669 68.4443ZM63.6905 21.1073C63.3084 21.7981 62.9972 22.415 62.7502 22.9745C64.3524 22.7077 66.0092 22.5518 67.7068 22.5395C69.5124 22.5258 71.2005 22.6147 72.7699 22.7939C73.7893 22.9102 74.7692 23.0648 75.7068 23.2563L75.6754 23.1633C75.397 22.3425 74.9575 21.3863 74.3107 20.2209C74.1892 20.0006 74.0036 19.6874 73.8248 19.3823C73.006 17.9939 72.2418 16.6971 72.9992 15.7505C73.0974 15.6274 73.2148 15.5207 73.3499 15.4304C73.8494 15.0939 74.5317 15.0542 75.2973 15.321C75.8159 15.5015 76.4219 15.8408 77.0564 16.3373C77.081 16.3537 77.1042 16.3715 77.1288 16.3893C77.56 16.7327 78.0104 17.1567 78.4621 17.6587C79.1676 18.2935 79.9059 19.1265 80.5979 20.1552C80.8135 20.4767 81.0114 20.7927 81.1901 21.1032C81.4931 20.7954 81.8384 20.4958 82.226 20.214C83.3832 19.3727 84.9376 18.6669 86.911 18.34C87.6275 18.221 88.2621 18.355 88.6906 18.6409C89.4957 19.1812 90.6039 20.3754 90.1481 21.4493C89.9406 21.939 89.4493 22.4506 88.6046 22.861C87.6834 23.3096 86.971 23.9936 86.4402 24.7008C85.5654 25.8649 85.1874 26.9688 85.1614 27.2547C86.0048 27.8853 86.7622 28.5679 87.4337 29.2929L87.4364 29.2957C88.0765 29.888 88.6524 30.5145 89.1641 31.1711C90.1972 32.4952 90.9683 33.9357 91.4773 35.4541C91.9795 36.9465 92.2238 38.5073 92.2156 40.0954C92.2074 41.6795 91.9454 43.2909 91.4336 44.8886C90.8877 46.5958 90.0539 48.292 88.9376 49.9294C88.9239 49.9554 88.9076 49.9801 88.8912 50.0047C88.146 51.0894 87.2781 52.1455 86.2887 53.1591C89.7578 54.9661 92.5499 57.3723 94.5356 60.4871C94.8686 61.0083 95.177 61.55 95.4636 62.1108C97.6198 65.5689 98.859 69.7739 98.8017 74.7641V74.7723C98.698 80.2495 97.351 84.7787 95.0078 88.39C92.6428 92.0342 89.276 94.7262 85.1587 96.5018C85.1587 98.317 85.2078 99.5044 86.2054 101.197C87.0898 102.696 89.1955 102.984 89.9092 104.67C90.0716 105.054 90.088 105.436 89.9789 105.79C89.8697 106.143 89.6431 106.436 89.3197 106.653C88.8707 106.954 88.2034 107.092 87.446 106.968C85.2229 106.598 83.6316 105.715 82.5044 104.67C82.2724 104.455 82.0608 104.232 81.867 104.006C81.7824 103.934 81.6992 103.86 81.6187 103.786C81.3771 103.562 81.1574 103.329 80.9568 103.094C80.5515 103.807 80.0834 104.504 79.6166 105.129C77.908 107.421 76.0875 108.604 74.9384 108.923C74.3966 109.073 73.9122 109.063 73.5328 108.916C72.83 108.641 71.6713 107.202 71.7341 106.526C71.7873 105.947 72.2131 105.179 73.1275 104.326C74.0131 103.501 74.6491 102.447 75.094 101.404C75.4898 100.48 75.7327 99.5783 75.8705 98.8492C75.311 98.9094 74.7433 98.96 74.1687 98.9983C72.8081 99.0885 71.3929 99.1159 69.9286 99.079C68.2295 99.0352 66.6069 98.8998 65.0648 98.6919C63.9989 98.5482 62.9672 98.369 61.9683 98.1597V98.2418C61.9683 98.9039 62.2603 100.481 63.0041 102.146C63.4926 103.239 64.1736 104.344 65.0866 105.194C66.0023 106.047 66.4172 106.826 66.4527 107.421C66.4964 108.144 66.1593 108.652 65.5206 108.91C65.1385 109.065 64.6458 109.085 64.0958 108.95C63.0955 108.705 61.6257 107.857 60.1696 106.255C59.58 105.723 58.9768 105.07 58.3927 104.287C58.1061 103.904 57.8277 103.489 57.5657 103.06C57.2095 103.543 56.7756 104.029 56.2515 104.489C55.1011 105.499 53.5139 106.389 51.359 106.836C50.5907 106.997 49.9097 106.864 49.4498 106.557C48.631 106.012 47.531 104.816 47.9527 103.723C48.1588 103.188 48.6828 102.623 49.6095 102.172C50.5648 101.707 51.2485 100.964 51.7289 100.184C52.6228 98.7356 52.8384 97.2227 52.8384 96.9218V95.1722C51.8913 94.7427 51.0138 94.3036 50.2059 93.8658C49.3065 93.3788 48.4768 92.8891 47.7235 92.4117C46.76 93.4992 45.5154 94.4089 43.991 95.0504C42.3056 95.7618 40.279 96.1434 37.9167 96.0737C34.8256 95.9834 32.7199 94.7098 31.3825 93.1504C30.8748 92.7168 30.4449 92.2394 30.0846 91.7428C29.4473 90.8673 29.0324 89.9303 28.8018 89.0822C28.5603 88.1889 28.522 87.3531 28.6462 86.7444C28.9738 85.1357 30.9826 84.6843 31.8779 85.6377C32.6899 86.5023 32.9341 88.8346 34.1173 89.5391C35.9938 90.6567 37.8048 90.3461 39.2377 88.5802C40.0497 87.5802 40.5669 86.2848 40.6611 85.081C40.672 84.9415 40.6775 84.817 40.6788 84.7089C40.6761 84.6775 40.6748 84.6446 40.6748 84.6118V36.5169C40.6748 36.3391 40.6679 36.1695 40.657 36.0094V35.993C40.5697 34.8973 40.3104 33.7387 39.654 32.9918C39.3797 32.6799 38.9129 32.6375 38.4858 32.6375C38.4175 32.6375 38.3561 32.6402 38.3029 32.6444C36.9218 32.7524 36.2886 33.9398 35.9228 34.9808C35.7891 35.3624 35.5516 35.7167 35.2514 35.978C35.2214 36.0067 35.19 36.0354 35.1572 36.0614C34.7519 36.3774 34.2443 36.5429 33.7025 36.4622V36.4581H33.6984C33.5865 36.4403 33.4773 36.4144 33.3722 36.3774C32.81 36.1804 31.609 34.8412 31.4807 34.212C31.3784 33.7072 31.407 33.0233 31.6036 32.2983C31.7878 31.6184 32.1208 30.8688 32.6298 30.1684C33.6697 28.7389 35.4397 27.4927 38.1733 27.4134C40.0306 27.3587 41.6246 27.661 42.9552 28.2218C44.077 28.6952 45.0091 29.3531 45.7501 30.1383C47.5884 28.8826 49.9984 27.4148 52.8316 26.107C52.7729 25.7445 52.4249 24.7035 51.6279 23.6174C50.4747 21.9677 48.7129 22.1428 47.9718 20.3918C47.8135 20.0198 47.7985 19.6504 47.905 19.3085C48.0114 18.9624 48.2311 18.6765 48.545 18.4658C48.9735 18.1785 49.6081 18.0459 50.3246 18.1649C52.2748 18.4891 53.7964 19.2182 54.9318 20.0895C54.9523 20.106 54.9728 20.1224 54.9932 20.1402C55.4409 20.4903 55.8271 20.8652 56.156 21.2482L56.2406 21.322C56.5395 20.6777 56.927 19.9856 57.406 19.2729C58.2508 18.0171 59.1583 17.0568 59.9908 16.392C60.014 16.3729 60.0386 16.3551 60.0631 16.3401C60.6977 15.8435 61.3036 15.5043 61.8222 15.3237C62.5878 15.0569 63.2415 15.1445 63.7697 15.4331C66.0324 16.6697 65.2258 18.4932 64.1791 20.2674V20.2701C63.9812 20.6066 63.7792 20.9486 63.6919 21.1059V21.1086L63.6905 21.1073Z" fill="white"/>
<path d="M76.9925 98.7082C76.7127 100.437 75.8652 103.25 73.8659 105.113C71.0001 107.783 74.5087 108.102 77.8659 103.597C78.9222 102.181 79.9771 100.392 80.2105 98.9558C80.4247 100.581 81.7785 104.188 86.7392 105.013C88.1626 105.25 88.7917 104.179 86.9112 103.262C84.0262 101.859 83.3274 98.384 83.2101 97.25L83.1664 97.265H83.1609V97.2692L82.9808 97.3293C82.9549 97.3375 82.9289 97.3458 82.903 97.3526L82.8812 97.3594H82.8757V97.3635L82.7338 97.41L82.6792 97.4265L82.5264 97.4757L82.5168 97.4784L82.3121 97.5441L82.2561 97.5605L82.2111 97.5742H82.2057V97.5783L82.1115 97.607C82.0869 97.6139 82.061 97.6207 82.0364 97.6262L81.8686 97.6754L81.859 97.6782L81.6229 97.7479L81.5738 97.7602L81.5247 97.7739C81.5001 97.7808 81.4755 97.7862 81.451 97.7917L81.264 97.8423L81.2545 97.845L81.0293 97.9066L80.9815 97.9175L80.9297 97.9312H80.9242V97.9353L80.8287 97.96L80.7782 97.9709L80.583 98.0201C80.5598 98.0256 80.5366 98.0311 80.5121 98.0352L80.3305 98.079H80.3251V98.0831L80.2282 98.1063C80.205 98.1118 80.1818 98.1173 80.1586 98.12L79.9293 98.1733L79.9157 98.1761L79.6223 98.2417L79.58 98.25L79.5145 98.2636L79.4653 98.2732L79.2579 98.317H79.2483V98.3211L79.0027 98.3703L78.9385 98.3813L78.8949 98.3895L78.8526 98.3963L78.5387 98.4551L78.5264 98.4579L78.2289 98.5126C78.1893 98.5222 78.1497 98.529 78.1102 98.5331C77.7403 98.596 77.365 98.6535 76.987 98.7055" fill="#E9E9E9"/>
<path d="M61.8618 19.6994C60.9911 21.2698 60.4752 22.4804 60.2132 23.4954C58.0802 24.0152 56.0672 24.7128 54.2098 25.4953L53.8223 25.6608C53.507 24.5117 52.4125 22.0071 49.9888 20.8279C48.2693 19.9908 48.8438 19.0113 50.1458 19.2274C54.2099 19.9032 56.1518 22.4831 56.4944 24.1041C56.609 23.0823 57.1767 21.542 58.3012 19.8704C60.3347 16.85 62.7147 15.7256 63.2715 16.4218C63.6468 16.891 62.6055 18.3574 61.8618 19.6994Z" fill="#E9E9E9"/>
<path d="M85.1581 38.822C85.2263 39.4922 85.2236 40.153 85.1581 40.8013V50.9596C87.2597 48.6655 88.7186 46.18 89.5197 43.6781C90.4763 40.6905 90.4981 37.6784 89.5674 34.9111C88.7759 32.5569 87.3102 30.4065 85.1581 28.6255V38.822ZM47.862 84.4505V38.5046C50.3812 35.5581 57.4163 28.0933 67.728 28.0195C70.2964 28.0017 73.2728 28.319 76.0377 29.1877V25.0784H76.0336C76.0336 24.8691 76.0186 24.6503 75.9859 24.4204C73.5458 23.8829 70.7877 23.597 67.7116 23.6188C58.1096 23.6886 49.8163 28.5461 45.5529 31.5925C44.2019 29.6829 41.7549 28.3847 38.204 28.49C32.7615 28.6501 31.8745 34.1341 32.8434 34.4733C33.4166 34.6744 33.9829 34.1204 34.0744 33.5199C34.35 31.6964 35.9167 30.7936 37.3347 30.6828C40.1009 30.4653 41.7604 33.6266 41.7604 36.5184V84.6132C41.8095 87.6664 39.3326 91.5336 35.9358 91.2654C34.0935 91.1218 32.0587 89.9481 31.7012 87.5803C31.5838 86.8005 30.8468 86.081 30.1031 86.3409C28.8435 86.7828 29.9966 93.9055 37.0658 94.1135C41.6758 94.2489 44.8515 92.5664 46.6078 90.089C48.2373 91.1779 50.3253 92.3926 52.8418 93.5034V87.8511C50.7292 86.5981 49.0643 85.3519 47.8647 84.4518L47.862 84.4505Z" fill="#E9E9E9"/>
<path d="M60.0009 31.8115V49.6766C58.7467 50.0295 57.5403 50.4823 56.4117 51.0445C55.5328 51.4823 54.699 51.987 53.9238 52.5602V35.8483C55.2408 34.5515 57.6959 32.6979 60.0009 31.8115Z" fill="#E9E9E9"/>
<path d="M77.1166 25.0767L77.1125 57.8631C74.3981 57.2448 70.8936 57.1135 67.58 57.2872C64.8288 57.4322 62.1226 57.8316 60.0032 58.3747V57.8111C57.9029 58.9451 56.2653 60.6742 55.5215 63.1542C55.3182 63.8327 55.179 64.57 55.1135 65.3689C55.0316 66.3757 55.2349 67.9269 56.0428 69.1567C56.081 69.2155 56.122 69.2743 56.1643 69.3318C56.5914 69.6368 57.1046 69.868 57.7173 69.9857C58.3724 70.1115 59.2089 70.091 60.0032 69.8502V62.7302C61.1427 62.2966 64.3048 61.8766 67.8121 61.6933C71.3084 61.5086 74.9399 61.6755 77.1112 62.4525L77.1071 90.6372L77.2053 90.6071L77.2121 90.6044L77.3172 90.5715L77.3568 90.5606L77.5097 90.5114V90.5086L77.7103 90.443L77.9109 90.3746L77.9505 90.3623L78.0992 90.3103V90.3075L78.2002 90.2706L78.222 90.2638L78.3994 90.1967L78.4649 90.1749L78.5728 90.1338L78.6041 90.1229L78.6778 90.0941L78.7079 90.0832L78.8116 90.0422V90.0394L78.959 89.9792L79.0217 89.956L79.0531 89.9423L79.0845 89.93L79.1391 89.9067L79.2783 89.8465L79.2974 89.8383L79.4093 89.7905L79.4393 89.7782L79.513 89.7453L79.5403 89.733L79.6932 89.6619L79.8569 89.5839L79.9143 89.5593L79.9675 89.5333L80.2432 89.3965L80.2882 89.376L80.325 89.3582L80.4178 89.3103L80.4547 89.2925L80.658 89.1872L80.8013 89.1079L81.0265 88.9834L81.0552 88.9683L81.1029 88.941L81.193 88.889L81.208 88.8808L81.3199 88.8151L81.4386 88.744L81.4973 88.7112L81.5942 88.6524V88.6496L81.8208 88.5073L81.8781 88.4732L81.9709 88.4143L82.1701 88.283L82.1674 88.2803L82.252 88.2228L82.2888 88.1996L82.3312 88.1708L82.57 88.0026L82.6123 87.9752C82.8088 87.8343 83.0026 87.6907 83.1923 87.5416V26.3967C83.1923 25.8783 84.2909 22.4421 87.2468 21.003C88.9664 20.1658 88.3918 19.1864 87.0899 19.4025C83.0244 20.0783 80.9664 22.4817 80.6239 24.1041C80.5106 23.0823 79.9416 21.542 78.817 19.8704C76.7836 16.85 74.4036 15.7256 73.8468 16.4218C73.4715 16.891 74.5128 18.3574 75.2565 19.6994C76.6253 22.1685 77.1193 23.7457 77.1193 25.0767" fill="#E9E9E9"/>
<path d="M61.9697 91.6911C64.2051 92.3395 66.229 92.6377 69.1754 92.713C72.2037 92.7841 75.0081 92.412 77.5246 91.6405H77.5315L77.6366 91.6063C77.7758 91.5625 77.9136 91.5174 78.0514 91.4723H78.0528C78.1906 91.4258 78.3271 91.3779 78.4622 91.33L78.5646 91.2944L78.5987 91.2821C78.7174 91.2383 78.8361 91.1946 78.9535 91.1494L78.9671 91.144L79.0668 91.1057C79.1664 91.066 79.266 91.0263 79.3656 90.9866L79.4639 90.9456L79.5622 90.9046C79.655 90.8649 79.7477 90.8252 79.8392 90.7856L79.8542 90.7787L79.9511 90.7363L79.9811 90.7226C80.0917 90.6734 80.2008 90.6228 80.3086 90.5722L80.3346 90.5612L80.4287 90.5161L80.4356 90.5133C80.5284 90.4696 80.6198 90.4244 80.7112 90.3779L80.8054 90.3314L80.8996 90.2835C80.9883 90.2384 81.077 90.1919 81.1643 90.1454L81.3172 90.0633C81.3922 90.0223 81.4673 89.9812 81.5423 89.9388L81.6324 89.8882L81.7225 89.8362L81.7457 89.8225C81.8262 89.776 81.9053 89.7295 81.9845 89.683L82.1605 89.5763L82.3885 89.434L82.5481 89.3328L82.7706 89.1865L82.8552 89.129L82.9398 89.0716L82.9466 89.0661C83.0271 89.0114 83.1063 88.9553 83.1854 88.8992L83.1895 88.8965C87.7872 85.6353 90.5358 80.429 90.6026 73.8137C90.6722 66.8482 88.6238 62.0031 84.355 58.8609V53.4248C92.3112 57.0006 96.9567 63.4134 96.8366 73.8712C96.6319 84.7106 91.3942 91.6268 83.1895 94.9003C83.0722 94.9468 82.9548 94.9919 82.8374 95.0371H82.8347L82.746 95.0726L82.6573 95.1068C82.5413 95.1506 82.4239 95.193 82.3066 95.2354L82.2984 95.2382L82.2083 95.2696L82.1169 95.3011L82.1114 95.3038C81.9927 95.3449 81.8726 95.3859 81.7525 95.4269L81.6611 95.457L81.5178 95.5035C81.3827 95.5473 81.2462 95.5911 81.1097 95.6321H81.1056L81.0128 95.6622L80.9187 95.6909C80.7631 95.7374 80.6061 95.784 80.4478 95.8291L80.3537 95.8565L80.3264 95.8633C80.1776 95.9043 80.0275 95.9454 79.876 95.985L79.7805 96.0097L79.6836 96.0343C79.5226 96.0753 79.3615 96.115 79.1991 96.1533L79.1009 96.1766C78.9071 96.2217 78.7119 96.2655 78.5154 96.3079H78.5113L78.4131 96.3298H78.4076C78.2452 96.3653 78.0801 96.3995 77.9149 96.431L77.8153 96.4501C77.582 96.4953 77.3459 96.5377 77.1084 96.5787C74.5933 97.0096 71.9021 97.1875 69.0717 97.1163C66.214 97.0424 64.2256 96.8715 61.9697 96.3995V91.6925V91.6911Z" fill="#E9E9E9"/>
<path d="M60.0049 77.1935V97.3554C60.0076 98.6207 60.8906 102.698 63.4685 105.099C66.3344 107.768 62.6197 108.146 59.2639 103.642C58.2076 102.227 57.2564 100.394 57.023 98.9572C56.7501 100.387 55.1602 103.876 50.2582 104.895C48.8457 105.189 48.2057 104.061 50.0862 103.144C53.3192 101.571 53.9252 97.488 53.9252 96.9217V75.9966C54.9514 76.5957 56.1332 76.9952 57.4761 77.1388L57.5171 77.1443C58.0711 77.2072 58.6129 77.2345 59.1411 77.2318C59.4386 77.2304 59.7265 77.2168 60.0076 77.1949" fill="#E9E9E9"/>
<path d="M76.0031 55.2834C68.0919 52.9156 54.0204 53.7568 53.1497 64.4034C52.9846 66.4279 53.8143 70.3374 57.514 71.0488C59.3455 71.4003 62.3301 70.8203 63.2731 68.2172C64.152 65.7905 66.5061 65.5675 66.5197 67.7726C66.5293 69.41 64.7292 76.0855 56.7484 75.1854C51.4602 74.6437 48.9642 69.6097 49.1525 64.4335C49.6724 50.1291 65.0622 48.1497 76.0044 50.694V55.2848L76.0031 55.2834Z" fill="#E9E9E9"/>
</svg>
