<?xml version="1.0" encoding="UTF-8"?>
<svg id="_Слой_1" data-name="Слой 1" xmlns="http://www.w3.org/2000/svg" viewBox="0 0 1000 1000">
  <defs>
    <style>
      .cls-1 {
        fill: #fff;
        stroke-width: 0px;
      }
    </style>
  </defs>
  <g>
    <path class="cls-1" d="m216.23,883.43c-3.01-15.47-5.94-30.89-8.78-46.25-2.84-15.35-5.47-30.14-7.9-44.34h-89.99c-2.43,14.2-5.07,28.99-7.9,44.34-2.84,15.36-5.76,30.77-8.77,46.25-1.39,7.27-7.99,41.57-7.99,41.57h53.16c.28-3.51,1.23-10.76,2.8-21.65h27.41c1.57,10.89,2.51,18.15,2.8,21.65h53.16s-6.6-34.3-7.99-41.57Zm-71.27-7.45c3.36-21.93,7.96-51.63,8.38-54.74h2.43c.42,3.1,5.02,32.8,8.38,54.74h-19.19Z"/>
    <path class="cls-1" d="m907.12,883.43c-3.01-15.47-5.94-30.89-8.77-46.25-2.84-15.35-5.47-30.14-7.91-44.34h-89.99c-2.43,14.2-5.07,28.99-7.91,44.34-2.84,15.36-5.76,30.77-8.77,46.25-1.39,7.27-7.99,41.57-7.99,41.57h53.16c.28-3.51,1.22-10.76,2.8-21.65h27.41c1.57,10.89,2.51,18.15,2.8,21.65h53.16s-6.6-34.3-7.99-41.57Zm-71.27-7.45c3.36-21.93,7.96-51.63,8.38-54.74h2.43c.42,3.1,5.02,32.8,8.38,54.74h-19.19Z"/>
    <path class="cls-1" d="m400.54,867.84h-51.77v-3.12c11.23,0,20.21-1.09,26.93-3.29,6.71-2.19,11.66-5.92,14.85-11.17,3.18-5.25,4.78-12.56,4.78-21.91s-2.26-16.77-6.78-21.91c-4.51-5.14-11.01-8.69-19.45-10.65-8.46-1.96-19.46-2.95-33.01-2.95h-71.05l.52,25.29c.12,6.82.2,13.63.26,20.44.05,6.82.09,13.63.09,20.44,0,7.51-.03,14.98-.09,22.43-.06,7.45-.14,14.93-.26,22.43-.12,4.62-.29,11.67-.52,21.13h52.29v-4.16c-.12-6.35,0-38.8,0-38.8h26.75v42.96h56.46c-1.16-3.12,0-57.16,0-57.16Zm-63.06-17.23c-2.55,2.02-5.97,3.03-10.25,3.03h-10.6v-25.98h9.9c3.13,0,5.76.38,7.9,1.13,2.14.75,3.82,2.05,5.04,3.9,1.21,1.85,1.82,4.39,1.82,7.62,0,4.85-1.27,8.29-3.82,10.31Zm6.6,24.36h0c-.1-.05-.14-.07,0,0Z"/>
    <path class="cls-1" d="m592.5,925l.52-23.38c.23-19.86.35-34.06.35-42.61l-.17-33.6c-.12-5.42-.24-10.88-.35-16.37-.12-5.48-.23-10.88-.35-16.19h76.09s16.51,85.62,16.85,88.16h2.78l-1.04-88.16h47.77c-.46,21.59-.7,43.65-.7,66.16,0,13.51.06,23.96.18,31.35l.52,34.64h-76.62s-15.4-85.51-15.98-88.51h-2.95s.23,68.07.7,88.51h-47.6Z"/>
    <path class="cls-1" d="m441.36,925c.35-8.66.61-18.94.78-30.83.18-11.89.26-23.67.26-35.33,0-10.97-.08-22.46-.26-34.47-.17-12.01-.43-22.51-.78-31.52h110.14v37.41h-58.2v15.76l53.33-1.73v29.27l-53.33-1.73v15.76h58.37v37.41h-110.32Z"/>
  </g>
  <g>
    <rect class="cls-1" x="99.4" y="637.7" width="149.09" height="6.37"/>
    <rect class="cls-1" x="99.4" y="676.37" width="149.09" height="6.37"/>
  </g>
  <g>
    <rect class="cls-1" x="751.51" y="637.7" width="149.09" height="6.37"/>
    <rect class="cls-1" x="751.51" y="676.37" width="149.09" height="6.37"/>
  </g>
  <g>
    <path class="cls-1" d="m248.49,535.3c-29.96-.26-54.84-.39-74.64-.39s-44.22.13-74.45.39v-82.6c0-14.03,2.12-25.65,6.35-34.87,4.23-9.22,10.68-16.14,19.34-20.75,8.66-4.61,19.64-6.92,32.92-6.92,21.1,0,36.77,5.45,46.99,16.37,10.23,10.91,15.34,25.65,15.34,44.22v26.3c2.87,0,7.23-.03,13.09-.09,5.86-.06,10.88-.16,15.05-.29v58.64Zm-63.9-69.94c0-4.8-1.79-8.6-5.38-11.39-3.58-2.79-9.67-4.19-18.27-4.19s-14.13,1.4-17.39,4.19c-3.26,2.79-4.89,6.85-4.89,12.17v11.3h45.92v-12.08Z"/>
    <path class="cls-1" d="m247.66,371.84c-22.85-15.71-43.43-29.54-61.73-41.5-18.41-12.03-39.4-25.36-62.97-39.97l32.77-49.86c18.13,12.46,36.73,24.93,55.79,37.38,11.88,7.76,17.13,11.04,23.41,14.82l30.58-47.24,40.05,38.26-57.91,88.1Z"/>
    <path class="cls-1" d="m751.51,411.6c9.77.39,21.36.68,34.78.87,13.41.2,26.7.29,39.86.29,12.37,0,25.34-.09,38.89-.29,13.55-.19,25.4-.49,35.56-.87v123.51h-42.21v-65.26h-17.78l1.96,59.81h-33.03l1.96-59.81h-17.78v65.46h-42.21v-123.7Z"/>
    <path class="cls-1" d="m661.45,220.42c3.98-12.77,7.26-23.11,11.2-35.32l-75.39-23.33-2.96,9.52,22.21,6.87-5.06,16.25s-2.23-.69-11.05-3.42c-21.56-6.67-19.68-20.75-12.82-42.79,2.2-7.07,3.94-12.6,5.72-16.39,5.92-12.62,11.81-13.51,15.28-12.98,13.55,2.06,8.18,24.51,6.21,32.07l56.34,17.44c4.75-17.02,6.51-30.89,5.28-41.61-1.23-10.72-6.14-19.71-14.71-27-8.58-7.27-21.82-13.69-39.74-19.23-16.42-5.08-30.36-6.64-41.81-4.68-11.45,1.96-21.08,7.59-28.88,16.87-7.8,9.28-14.42,22.66-19.87,40.15-5.02,16.13-7.3,30.24-6.85,42.35.46,12.11,3.85,22.24,10.18,30.38,6.33,8.14,15.71,14.14,28.16,17.99,9.45,2.93,17.83,2.53,25.13-1.2,7.3-3.72,13.12-11.03,17.47-21.93l3.36,1.04-10.62,30.17,54.68,16.92c1.7-5.46,3.24-10.52,4.63-15.19,1.38-4.67,2.7-8.99,3.94-12.96Z"/>
    <path class="cls-1" d="m456.02,165.4c-8.92-15.33-17.73-30.64-26.43-45.92-8.69-15.27-16.96-30.01-24.8-44.21l-95.63,33.08c2.67,15.99,5.33,32.66,8,50.02,2.66,17.36,5.26,34.82,7.78,52.37,1.21,8.24,6.88,47.11,6.88,47.11l56.49-19.54c-.99-3.83-2.68-11.89-5.03-24.04,1.87-.65,27.26-9.43,29.13-10.08,5.7,10.99,9.38,18.36,10.98,21.98l56.49-19.54s-19.7-34.02-23.86-41.24Zm-78.49,18.28c-4.54-24.54-10.63-57.79-11.33-61.24l2.58-.89c1.59,3.14,17.46,33.01,29.15,55.08l-20.4,7.05Z"/>
    <path class="cls-1" d="m836.87,248.73s-46.34,31.83-58.28,39.97c-28.25,19.26-33.99,19.7-38.7,12.83-4.71-6.87-2.22-12.04,26.03-31.3,11.94-8.14,58.5-39.65,58.5-39.65l-33.09-48.24c-12.21,9.11-24.51,17.88-36.87,26.31l-16.78,11.44c-3.01,2.05-6.18,4.21-9.52,6.49-3.33,2.27-6.83,4.66-10.48,7.15-12.26,8.36-20.88,16.83-25.88,25.43-4.99,8.59-6.66,17.84-5.01,27.72,1.65,9.88,9.38,24.9,18.52,38.22,9.13,13.32,20.36,25.95,29,31.07,8.64,5.13,17.88,6.93,27.73,5.41,9.85-1.52,20.9-6.46,33.16-14.82,3.65-2.49,7.15-4.87,10.48-7.15,3.33-2.27,6.5-4.44,9.51-6.49l16.78-11.44c12.36-8.43,25.02-16.66,37.97-24.71l-33.09-48.24Z"/>
  </g>
  <path class="cls-1" d="m606.6,442.99c-41.41-11.3-104.36,20-156.88,13l-.5-4.71c69.32.56,113.44-38.16,161.12-25.25l14.71-36.43s-89.83-74.78-155.24-27.82l-12.85,68.39s-100.12-37.09-105.35,10.3c-2.8,25.31,34.05,32.87,78.34,35.97-12.78,22.48-87.71,30.35-109.24,125.88l8.21,3.15c40.88-43.22,86.5-39.07,126.14-28.63,0,49.13-59.95,105.92-59.95,105.92h217.95c74.38,0-42.16-109.8-35.55-191.23,45.12,12.13,68.66,23.27,80.22,15.17,12.15-8.51-7.69-51.85-51.13-63.7Zm-136.62,117.59c-40.89-12.43-106.45-8.1-131.74,24.08,30.23-83.76,94.65-75.29,108.92-106.28l7.3.33c-1.1,3.1-1.81,6.39-1.81,9.87,0,16.41,13.34,29.71,29.79,29.71s29.8-13.3,29.8-29.71c0-2.53-.41-4.95-1.01-7.3l18.77.85s8.94,31.91,11.72,50.95c3,20.61-11.61,45.78-71.74,27.51Z"/>
</svg>