<?xml version="1.0" encoding="UTF-8"?>
<svg id="_Слой_1" data-name="Слой 1" xmlns="http://www.w3.org/2000/svg" viewBox="0 0 1000 1000">
  <defs>
    <style>
      .cls-1 {
        fill: #fff;
        stroke-width: 0px;
      }
    </style>
  </defs>
  <path class="cls-1" d="m169.52,348.3l-94.52,81.69v221.71h64.72v-105.32c0-26.88,21.86-48.68,48.83-48.68h0c26.97,0,48.83,21.8,48.83,48.68v105.32h64.72l94.53-81.69v-221.71h-227.09Z"/>
  <g>
    <polyline class="cls-1" points="550.82 446.85 572.61 446.85 589.22 409.98 594.72 394.65 595.87 394.65 594.89 402.4 594.89 446.85 610.29 446.85 610.29 384.31 587.74 384.31 569.73 425.36 565.54 436.18 564.39 436.18 565.62 425.53 565.62 384.31 550.22 384.31 550.3 446.85"/>
    <path class="cls-1" d="m691.27,429.8c0-3.28-.71-5.93-2.14-7.95-1.42-2.02-3.75-3.55-6.99-4.59-3.23-1.04-7.7-1.72-13.4-2.05v-1.15c5.43-.27,9.65-.97,12.66-2.09,3.01-1.12,5.17-2.68,6.45-4.67,1.29-1.99,1.93-4.6,1.93-7.83,0-4.1-.99-7.24-2.96-9.43-1.97-2.18-4.81-3.69-8.51-4.51-3.7-.82-8.56-1.23-14.59-1.23h-28.45v62.54h29.84c6.19,0,11.18-.53,14.96-1.6,3.78-1.06,6.59-2.81,8.43-5.25,1.84-2.43,2.75-5.83,2.75-10.2Zm-40.12-35.33h10.85c2.52,0,4.61.26,6.25.78,1.64.52,2.89,1.39,3.74,2.62.85,1.23,1.27,2.86,1.27,4.88,0,2.79-.9,4.77-2.71,5.94-1.81,1.18-4.66,1.76-8.55,1.76h-10.85v-15.98Zm22.65,37.46c-.85,1.26-2.18,2.16-3.99,2.7-1.81.55-4.19.82-7.15.82h-11.43v-16.47h10.77c4.49,0,7.8.59,9.91,1.76,2.11,1.18,3.16,3.24,3.16,6.19,0,2.08-.42,3.74-1.27,5Z"/>
    <g>
      <polyline class="cls-1" points="865.53 446.85 887.32 446.85 903.93 409.98 909.43 394.65 910.59 394.65 909.6 402.4 909.6 446.85 925 446.85 925 384.31 902.45 384.31 884.44 425.36 880.25 436.18 879.1 436.18 880.33 425.53 880.33 384.31 864.93 384.31 865.01 446.85"/>
      <path class="cls-1" d="m894.97,376.44c4.06,0,7.24-.98,9.54-2.95,2.3-1.97,3.48-4.94,3.54-8.93l-4.77-.66c0,1.59-.75,2.84-2.26,3.77-1.51.93-3.52,1.39-6.04,1.39s-4.37-.45-5.88-1.35c-1.51-.9-2.29-2.17-2.34-3.81l-4.85.66c.22,3.93,1.44,6.9,3.66,8.89,2.22,2,5.36,2.99,9.41,2.99Z"/>
    </g>
    <path class="cls-1" d="m495.81,489.66c14.52-.8,13.25,13.91,13.8,19.16l16.72-1.64c-.38-5.57-1.6-10.23-3.66-13.98-2.05-3.74-5.86-6.6-9.89-8.56-4.03-1.97-9.19-2.95-15.5-2.95-6.74,0-13.61,1.18-17.94,3.52-4.33,2.35-8.02,5.9-10.07,10.66-2.06,4.75-3.48,10.77-3.48,18.03s1.43,13.28,3.48,18.03c2.05,4.75,5.74,8.31,10.07,10.66,4.33,2.35,11.2,3.52,17.94,3.52,6.3,0,11.47-.98,15.5-2.95,4.03-1.97,7.84-4.82,9.89-8.57,2.06-3.74,3.28-8.4,3.66-13.98l-16.72-1.64c-.55,5.24.72,19.96-13.8,19.16-11.61-.64-11.85-20.24-11.85-24.24,0-4,.25-23.6,11.85-24.24Z"/>
    <path class="cls-1" d="m579.87,516.11c-.74-.71-1.73-1.23-2.96-1.56-1.23-.33-3.3-.68-6.21-1.07v-1.06c2.85-.44,4.9-.82,6.17-1.15,1.26-.33,2.3-.83,3.12-1.52.82-.68,1.75-1.85,2.79-3.48l16.03-23.61h-17.35l-17.35,25.74h-4.36v-25.74h-16.28v62.54h16.28v-27.29h4.28l18.42,27.29h18l-17.84-25.41c-1.1-1.75-2.01-2.98-2.75-3.69Z"/>
    <path class="cls-1" d="m623.43,482.67l-.08,31.8c0,10.82-1.67,17.3-11.02,17.3v14.18c18.89,0,24.45-12.73,24.45-29.18v-23.11h19.76l-.23,51.55h16.2v-62.54h-49.08Z"/>
    <path class="cls-1" d="m825.51,482.67h-48.26v27.54c0,4.05-.16,7.49-.49,10.33-.33,2.84-1,5.44-2.01,7.79-.96,2.21-2.35,4.17-4.15,5.9h-6.82l.41,21.56h12.17v-10.57h43.74v10.57h12.25l.41-21.56h-7.24v-51.56Zm-44.33,51.56c1.01-.67,7.63-3.81,7.63-17.13v-23.44h20.66v40.57h-28.29Z"/>
    <polygon class="cls-1" points="749.83 384.31 749.83 408 727.64 408 727.64 384.31 711.36 384.31 711.36 446.85 727.64 446.85 727.64 418.98 749.83 418.98 749.83 446.85 766.11 446.85 766.11 384.31 749.83 384.31"/>
    <path class="cls-1" d="m843.62,397.31c-2.21-4.8-5.59-8.47-10.15-10.81-4.56-2.34-10.69-3.51-17.95-3.51s-13.39,1.17-17.95,3.51c-4.56,2.34-7.94,6.02-10.15,10.81-2.21,4.79-3.78,10.89-3.78,18.27s1.57,13.48,3.78,18.27c2.21,4.8,5.59,8.47,10.15,10.81,4.55,2.34,10.69,3.51,17.95,3.51s13.39-1.17,17.95-3.51c4.56-2.34,7.94-6.02,10.15-10.81,2.21-4.79,3.78-10.89,3.78-18.27s-1.57-13.48-3.78-18.27Zm-28.09,44.67c-4.84,0-13.84-1.55-13.84-26.4s9.01-26.4,13.84-26.4,13.84,1.55,13.84,26.4-9.01,26.4-13.84,26.4Z"/>
    <path class="cls-1" d="m734.21,545.21h16.69l-17.26-62.54h-27.29l-17.26,62.54h16.69l3.6-13.93h21.24l3.6,13.93Zm-22.98-21.15l8.34-32.29h.82l8.34,32.29h-17.51Z"/>
    <polygon class="cls-1" points="469.66 384.31 469.66 446.85 486.58 446.85 486.58 395.3 508.78 395.3 508.78 446.85 525.7 446.85 525.7 384.31 469.66 384.31"/>
  </g>
</svg>