<svg width="40" height="34" viewBox="0 0 40 34" fill="none" xmlns="http://www.w3.org/2000/svg">
<path d="M16.0537 0.392348C15.0025 0.655154 13.6885 1.79047 13.6885 2.44223C13.6885 2.52633 13.7936 2.63145 13.9303 2.6735C14.2141 2.75759 14.3192 2.90477 14.3192 3.19911C14.3192 3.32525 14.3823 3.4514 14.4664 3.48294C14.54 3.51447 14.9604 4.20828 15.3809 5.01772C15.8119 5.83767 16.2114 6.49994 16.264 6.49994C16.4111 6.49994 19.0497 3.70369 19.0497 3.54601C19.0497 3.47242 18.6502 2.99938 18.1562 2.49479C17.6621 2.00072 17.2626 1.50664 17.2626 1.41203C17.2626 1.31742 17.147 1.19128 16.9998 1.13871C16.8001 1.06513 16.737 0.960008 16.737 0.728739C16.737 0.550032 16.6739 0.402861 16.5688 0.360812C16.4742 0.329275 16.4006 0.297739 16.3901 0.308251C16.3796 0.318763 16.2324 0.3503 16.0537 0.392348Z" fill="white"/>
<path d="M23.3907 0.371368C23.3171 0.402905 23.254 0.560589 23.254 0.728783C23.254 0.960052 23.1909 1.06517 22.9912 1.13876C22.844 1.19132 22.7284 1.31747 22.7284 1.41208C22.7284 1.5172 22.0766 2.26357 21.2777 3.07301C19.0281 5.36467 17.4513 7.03611 15.8219 8.82318L14.3187 10.4631L12.847 11.241C11.9955 11.6825 11.144 12.2186 10.8496 12.4919C10.3661 12.9335 0.568735 26.4627 0.169272 27.2406C0.0641508 27.4298 0.00107771 27.8292 0.00107771 28.2182C-0.00943446 28.7438 0.0536386 28.9856 0.337467 29.5007C1.27305 31.2667 2.99705 32.6964 4.96282 33.3376C6.57119 33.8738 7.45421 33.8107 8.2216 33.1064C8.73669 32.6333 18.4079 19.1777 18.7968 18.3788C18.9966 17.9793 19.1753 17.275 19.375 16.0661C19.7114 14.1739 19.6588 14.2895 21.0885 11.7035C21.6036 10.7785 22.7494 8.60242 23.643 6.86791C24.5365 5.1334 25.3564 3.64067 25.4721 3.53554C25.5772 3.44093 25.6718 3.28325 25.6718 3.16762C25.6718 2.90481 25.7874 2.75764 26.0713 2.67354C26.3446 2.58944 26.3656 2.40022 26.1554 1.99025C25.7349 1.18081 23.9793 0.150612 23.3907 0.371368Z" fill="white"/>
<path d="M24.0323 8.89677C23.9693 8.93882 23.5488 9.65365 23.0968 10.4946C22.6447 11.3356 21.9404 12.6076 21.5305 13.3329L20.7946 14.6469L20.7526 15.7087C20.7 16.9176 20.8261 17.6219 21.2151 18.4103C21.5935 19.1777 31.2647 32.6438 31.7693 33.1064C32.5367 33.8107 33.4197 33.8738 35.0281 33.3376C36.9939 32.6964 38.7179 31.2667 39.6534 29.5007C39.9373 28.9856 40.0003 28.7438 40.0003 28.2182C40.0003 27.8292 39.9268 27.4298 39.8216 27.2406C39.4222 26.4627 29.6248 12.9335 29.1518 12.4919C28.8469 12.2186 28.048 11.714 27.2281 11.2936C25.9666 10.6418 25.7458 10.4841 24.989 9.6957C24.4844 9.17009 24.0954 8.84421 24.0323 8.89677Z" fill="white"/>
</svg>
