<svg width="40" height="40" viewBox="0 0 40 40" fill="none" xmlns="http://www.w3.org/2000/svg">
<path fill-rule="evenodd" clip-rule="evenodd" d="M5.66634 5.66665C3.33301 8.0222 3.33301 11.7889 3.33301 19.3333V20.6666C3.33301 28.2 3.33301 31.9666 5.66634 34.3333C8.0219 36.6666 11.7886 36.6666 19.333 36.6666H20.6663C28.1997 36.6666 31.9663 36.6666 34.333 34.3333C36.6663 31.9778 36.6663 28.2111 36.6663 20.6666V19.3333C36.6663 11.8 36.6663 8.03331 34.333 5.66665C31.9775 3.33331 28.2108 3.33331 20.6663 3.33331H19.333C11.7997 3.33331 8.03301 3.33331 5.66634 5.66665ZM8.95523 13.4778C9.133 22.1444 13.4663 27.3444 21.0663 27.3444H21.5108V22.3889C24.2997 22.6666 26.4108 24.7111 27.2552 27.3444H31.1997C30.7951 25.8481 30.0779 24.4545 29.0954 23.2555C28.1129 22.0566 26.8874 21.0796 25.4997 20.3889C26.7432 19.6316 27.8172 18.6261 28.6545 17.435C29.4919 16.244 30.0746 14.8931 30.3663 13.4667H26.7886C26.0108 16.2222 23.6997 18.7222 21.5108 18.9555V13.4778H17.9219V23.0778C15.6997 22.5222 12.8997 19.8333 12.7774 13.4778H8.95523Z" fill="white"/>
</svg>
